<svg width="576" height="160" viewBox="0 0 576 160" fill="none" xmlns="http://www.w3.org/2000/svg">
<path d="M186.092 123.288C182.048 123.288 178.406 122.568 175.165 121.127C171.952 119.659 169.404 117.499 167.52 114.646C165.664 111.793 164.737 108.275 164.737 104.093C164.737 100.492 165.401 97.5142 166.731 95.1598C168.06 92.8054 169.875 90.9219 172.174 89.5092C174.473 88.0966 177.062 87.0302 179.943 86.31C182.852 85.5621 185.857 85.022 188.959 84.6896C192.699 84.3018 195.732 83.9556 198.058 83.6509C200.385 83.3185 202.075 82.82 203.127 82.1552C204.207 81.4627 204.748 80.3963 204.748 78.956V78.7067C204.748 75.5767 203.82 73.1531 201.964 71.4357C200.108 69.7184 197.435 68.8597 193.945 68.8597C190.261 68.8597 187.339 69.663 185.178 71.2695C183.045 72.8761 181.605 74.7734 180.857 76.9616L166.814 74.9673C167.922 71.0895 169.75 67.8487 172.298 65.245C174.847 62.6136 177.963 60.647 181.647 59.3452C185.331 58.0156 189.402 57.3509 193.862 57.3509C196.936 57.3509 199.997 57.7109 203.044 58.4311C206.091 59.1513 208.875 60.3423 211.395 62.0043C213.916 63.6385 215.938 65.8683 217.461 68.6935C219.012 71.5188 219.788 75.0504 219.788 79.2884V122H205.329V113.233H204.831C203.917 115.006 202.629 116.668 200.967 118.219C199.332 119.743 197.269 120.975 194.776 121.917C192.311 122.831 189.416 123.288 186.092 123.288ZM189.998 112.236C193.017 112.236 195.635 111.641 197.85 110.45C200.066 109.231 201.77 107.624 202.961 105.63C204.18 103.636 204.789 101.461 204.789 99.1069V91.5866C204.318 91.9744 203.515 92.3345 202.379 92.6669C201.271 92.9993 200.025 93.2901 198.64 93.5394C197.255 93.7887 195.884 94.0103 194.527 94.2042C193.169 94.3981 191.992 94.5643 190.995 94.7028C188.751 95.0075 186.743 95.506 184.971 96.1985C183.198 96.891 181.799 97.8604 180.774 99.1069C179.749 100.326 179.237 101.904 179.237 103.843C179.237 106.613 180.248 108.705 182.27 110.117C184.292 111.53 186.868 112.236 189.998 112.236Z" fill="black"/>
<path d="M249.952 84.6065V122H234.912V58.1818H249.287V69.0259H250.035C251.503 65.4528 253.844 62.6136 257.057 60.5085C260.298 58.4034 264.3 57.3509 269.064 57.3509C273.468 57.3509 277.305 58.2926 280.573 60.1761C283.869 62.0597 286.418 64.788 288.218 68.3612C290.046 71.9343 290.946 76.2692 290.919 81.3658V122H275.878V83.6925C275.878 79.4268 274.77 76.0891 272.554 73.6793C270.366 71.2695 267.333 70.0646 263.455 70.0646C260.824 70.0646 258.483 70.6463 256.434 71.8097C254.412 72.9453 252.819 74.5934 251.656 76.7539C250.52 78.9144 249.952 81.532 249.952 84.6065Z" fill="black"/>
<path d="M324.573 123.288C320.529 123.288 316.886 122.568 313.646 121.127C310.433 119.659 307.884 117.499 306.001 114.646C304.145 111.793 303.217 108.275 303.217 104.093C303.217 100.492 303.882 97.5142 305.211 95.1598C306.541 92.8054 308.355 90.9219 310.654 89.5092C312.953 88.0966 315.543 87.0302 318.424 86.31C321.332 85.5621 324.337 85.022 327.44 84.6896C331.179 84.3018 334.212 83.9556 336.539 83.6509C338.865 83.3185 340.555 82.82 341.608 82.1552C342.688 81.4627 343.228 80.3963 343.228 78.956V78.7067C343.228 75.5767 342.3 73.1531 340.444 71.4357C338.588 69.7184 335.915 68.8597 332.425 68.8597C328.741 68.8597 325.819 69.663 323.659 71.2695C321.526 72.8761 320.086 74.7734 319.338 76.9616L305.294 74.9673C306.402 71.0895 308.23 67.8487 310.779 65.245C313.327 62.6136 316.443 60.647 320.127 59.3452C323.811 58.0156 327.883 57.3509 332.342 57.3509C335.417 57.3509 338.478 57.7109 341.525 58.4311C344.571 59.1513 347.355 60.3423 349.876 62.0043C352.396 63.6385 354.418 65.8683 355.942 68.6935C357.493 71.5188 358.268 75.0504 358.268 79.2884V122H343.81V113.233H343.311C342.397 115.006 341.109 116.668 339.447 118.219C337.813 119.743 335.749 120.975 333.256 121.917C330.791 122.831 327.897 123.288 324.573 123.288ZM328.478 112.236C331.498 112.236 334.115 111.641 336.331 110.45C338.547 109.231 340.25 107.624 341.441 105.63C342.66 103.636 343.27 101.461 343.27 99.1069V91.5866C342.799 91.9744 341.995 92.3345 340.86 92.6669C339.752 92.9993 338.505 93.2901 337.12 93.5394C335.735 93.7887 334.364 94.0103 333.007 94.2042C331.65 94.3981 330.473 94.5643 329.475 94.7028C327.232 95.0075 325.224 95.506 323.451 96.1985C321.678 96.891 320.279 97.8604 319.255 99.1069C318.23 100.326 317.717 101.904 317.717 103.843C317.717 106.613 318.728 108.705 320.75 110.117C322.772 111.53 325.348 112.236 328.478 112.236Z" fill="black"/>
<path d="M373.392 122V58.1818H387.975V68.8182H388.64C389.804 65.1342 391.798 62.2951 394.623 60.3008C397.476 58.2788 400.731 57.2678 404.387 57.2678C405.218 57.2678 406.146 57.3093 407.171 57.3924C408.223 57.4478 409.096 57.5447 409.788 57.6832V71.5188C409.151 71.2972 408.14 71.1033 406.755 70.9371C405.398 70.7433 404.082 70.6463 402.808 70.6463C400.066 70.6463 397.601 71.2418 395.413 72.4329C393.252 73.5962 391.549 75.2166 390.302 77.294C389.056 79.3715 388.433 81.7674 388.433 84.4819V122H373.392Z" fill="black"/>
<path d="M478.727 58.1818L456 122H439.381L416.654 58.1818H432.692L447.358 105.588H448.023L462.731 58.1818H478.727Z" fill="black"/>
<path d="M489.135 122V58.1818H504.176V122H489.135ZM496.697 49.1243C494.315 49.1243 492.265 48.3349 490.548 46.756C488.831 45.1495 487.972 43.2244 487.972 40.9808C487.972 38.7095 488.831 36.7844 490.548 35.2056C492.265 33.5991 494.315 32.7958 496.697 32.7958C499.107 32.7958 501.157 33.5991 502.846 35.2056C504.563 36.7844 505.422 38.7095 505.422 40.9808C505.422 43.2244 504.563 45.1495 502.846 46.756C501.157 48.3349 499.107 49.1243 496.697 49.1243Z" fill="black"/>
<path d="M534.683 84.6065V122H519.642V58.1818H534.018V69.0259H534.766C536.234 65.4528 538.574 62.6136 541.787 60.5085C545.028 58.4034 549.031 57.3509 553.795 57.3509C558.199 57.3509 562.035 58.2926 565.304 60.1761C568.6 62.0597 571.148 64.788 572.948 68.3612C574.777 71.9343 575.677 76.2692 575.649 81.3658V122H560.609V83.6925C560.609 79.4268 559.501 76.0891 557.285 73.6793C555.097 71.2695 552.064 70.0646 548.186 70.0646C545.554 70.0646 543.214 70.6463 541.164 71.8097C539.142 72.9453 537.549 74.5934 536.386 76.7539C535.25 78.9144 534.683 81.532 534.683 84.6065Z" fill="black"/>
<path d="M0 70.9278L64.2973 0L122 37.9381V160H0V70.9278Z" fill="black"/>
</svg>
