<svg width="673" height="104" viewBox="0 0 673 104" fill="none" xmlns="http://www.w3.org/2000/svg">
<path d="M0.147461 104L47.0405 0.36499H62.4755L109.368 104H90.2585L79.9685 80.039H29.4005L19.2575 104H0.147461ZM54.5375 20.798L35.8685 65.045H73.5005L54.8315 20.798H54.5375Z" fill="black"/>
<path d="M120.708 104V0.36499H134.82L190.533 72.689V0.36499H208.026V104H194.061L138.201 31.382V104H120.708Z" fill="black"/>
<path d="M219.499 104L266.392 0.36499H281.827L328.72 104H309.61L299.32 80.039H248.752L238.609 104H219.499ZM273.889 20.798L255.22 65.045H292.852L274.183 20.798H273.889Z" fill="black"/>
<path d="M340.06 104V0.36499H385.042C396.41 0.36499 405.181 3.10899 411.355 8.59699C417.529 13.987 420.616 21.582 420.616 31.382C420.616 39.124 418.607 45.543 414.589 50.639C410.571 55.637 404.789 59.018 397.243 60.782C402.241 62.35 406.357 66.123 409.591 72.101L426.937 104H406.21L388.276 70.925C386.512 67.691 384.405 65.486 381.955 64.31C379.603 63.134 376.565 62.546 372.841 62.546H358.876V104H340.06ZM358.876 48.581H381.808C395.528 48.581 402.388 42.995 402.388 31.823C402.388 20.749 395.528 15.212 381.808 15.212H358.876V48.581Z" fill="black"/>
<path d="M472.191 104L426.033 0.36499H446.172L480.423 79.892L514.674 0.36499H534.078L487.92 104H472.191Z" fill="black"/>
<path d="M543.764 104V0.36499H562.58V104H543.764Z" fill="black"/>
<path d="M585.108 104V0.36499H599.22L654.933 72.689V0.36499H672.426V104H658.461L602.601 31.382V104H585.108Z" fill="black"/>
</svg>
